# xmcd CD database file
#
# Track frame offsets:
#	150
#	22967
#	43203
#	64053
#	83742
#	107734
#	130799
#	148339
#	169916
#	192593
#	212883
#	232249
#	251451
#	272670
#	288815
#	310362
#
# Disc length: 4365 seconds
#
# Revision: 1
# Processed by: cddbd v1.5.1PL0 Copyright (c) Steve Scherf et al.
# Submitted via: CDex 1.51
#
DISCID=f4110b10
DTITLE=彭佳慧 - First Time (Disk One)
DYEAR=2004
DGENRE=Blues
TTITLE0=回味
TTITLE1=说真的
TTITLE2=你答应我的事
TTITLE3=YOU ARE THE ONE
TTITLE4=陪他
TTITLE5=听说爱情回来过
TTITLE6=爱让我勇敢做梦
TTITLE7=贪婪
TTITLE8=啦啦啦
TTITLE9=真的爱
TTITLE10=死心眼
TTITLE11=不得不爱
TTITLE12=爱疯了
TTITLE13=不要问
TTITLE14=旧梦
TTITLE15=快乐的人请举手
EXTD=YEAR: 2004
EXTT0=
EXTT1=
EXTT2=
EXTT3=
EXTT4=
EXTT5=
EXTT6=
EXTT7=
EXTT8=
EXTT9=
EXTT10=
EXTT11=
EXTT12=
EXTT13=
EXTT14=
EXTT15=
PLAYORDER=
